<mxfile host="app.diagrams.net" modified="2024-07-19T15:04:45.475Z" agent="Mozilla/5.0 (Windows NT 10.0; Win64; x64) AppleWebKit/537.36 (KHTML, like Gecko) Chrome/126.0.0.0 Safari/537.36" etag="8Ltt-WP-YpVH4XOQ9Hxq" version="24.7.1" type="device">
  <diagram name="Страница — 1" id="IwDGmRGd7RprH901mXrI">
    <mxGraphModel dx="1140" dy="617" grid="1" gridSize="10" guides="1" tooltips="1" connect="1" arrows="1" fold="1" page="1" pageScale="1" pageWidth="827" pageHeight="1169" math="0" shadow="0">
      <root>
        <mxCell id="0" />
        <mxCell id="1" parent="0" />
        <mxCell id="-HdvGqZTLZDaeZgYWsxk-30" value="" style="rounded=0;whiteSpace=wrap;html=1;strokeColor=none;" vertex="1" parent="1">
          <mxGeometry x="100" y="90" width="400" height="420" as="geometry" />
        </mxCell>
        <mxCell id="-HdvGqZTLZDaeZgYWsxk-1" value="Жёлтый" style="rounded=1;whiteSpace=wrap;html=1;fillColor=#f5f5f5;fontColor=#333333;strokeColor=#666666;labelPosition=center;verticalLabelPosition=top;align=center;verticalAlign=bottom;" vertex="1" parent="1">
          <mxGeometry x="120" y="160" width="40" height="130" as="geometry" />
        </mxCell>
        <mxCell id="-HdvGqZTLZDaeZgYWsxk-2" value="" style="ellipse;whiteSpace=wrap;html=1;aspect=fixed;fillColor=#f5f5f5;strokeColor=#666666;fontColor=#333333;" vertex="1" parent="1">
          <mxGeometry x="125" y="170" width="30" height="30" as="geometry" />
        </mxCell>
        <mxCell id="-HdvGqZTLZDaeZgYWsxk-3" value="" style="ellipse;whiteSpace=wrap;html=1;aspect=fixed;fillColor=#fff2cc;strokeColor=#d6b656;" vertex="1" parent="1">
          <mxGeometry x="125" y="210" width="30" height="30" as="geometry" />
        </mxCell>
        <mxCell id="-HdvGqZTLZDaeZgYWsxk-4" value="" style="ellipse;whiteSpace=wrap;html=1;aspect=fixed;fillColor=#f5f5f5;strokeColor=#666666;fontColor=#333333;" vertex="1" parent="1">
          <mxGeometry x="125" y="250" width="30" height="30" as="geometry" />
        </mxCell>
        <mxCell id="-HdvGqZTLZDaeZgYWsxk-5" value="Красный" style="rounded=1;whiteSpace=wrap;html=1;fillColor=#f5f5f5;fontColor=#333333;strokeColor=#666666;labelPosition=center;verticalLabelPosition=top;align=center;verticalAlign=bottom;" vertex="1" parent="1">
          <mxGeometry x="280" y="120" width="40" height="130" as="geometry" />
        </mxCell>
        <mxCell id="-HdvGqZTLZDaeZgYWsxk-6" value="" style="ellipse;whiteSpace=wrap;html=1;aspect=fixed;fillColor=#f8cecc;strokeColor=#b85450;" vertex="1" parent="1">
          <mxGeometry x="285" y="130" width="30" height="30" as="geometry" />
        </mxCell>
        <mxCell id="-HdvGqZTLZDaeZgYWsxk-7" value="" style="ellipse;whiteSpace=wrap;html=1;aspect=fixed;fillColor=#f5f5f5;strokeColor=#666666;fontColor=#333333;" vertex="1" parent="1">
          <mxGeometry x="285" y="170" width="30" height="30" as="geometry" />
        </mxCell>
        <mxCell id="-HdvGqZTLZDaeZgYWsxk-8" value="" style="ellipse;whiteSpace=wrap;html=1;aspect=fixed;fillColor=#f5f5f5;strokeColor=#666666;fontColor=#333333;" vertex="1" parent="1">
          <mxGeometry x="285" y="210" width="30" height="30" as="geometry" />
        </mxCell>
        <mxCell id="-HdvGqZTLZDaeZgYWsxk-9" value="Красно-жёлтый" style="rounded=1;whiteSpace=wrap;html=1;fillColor=#f5f5f5;fontColor=#333333;strokeColor=#666666;labelPosition=center;verticalLabelPosition=top;align=center;verticalAlign=bottom;" vertex="1" parent="1">
          <mxGeometry x="440" y="160" width="40" height="130" as="geometry" />
        </mxCell>
        <mxCell id="-HdvGqZTLZDaeZgYWsxk-10" value="" style="ellipse;whiteSpace=wrap;html=1;aspect=fixed;fillColor=#f8cecc;strokeColor=#b85450;" vertex="1" parent="1">
          <mxGeometry x="445" y="170" width="30" height="30" as="geometry" />
        </mxCell>
        <mxCell id="-HdvGqZTLZDaeZgYWsxk-11" value="" style="ellipse;whiteSpace=wrap;html=1;aspect=fixed;fillColor=#fff2cc;strokeColor=#d6b656;" vertex="1" parent="1">
          <mxGeometry x="445" y="210" width="30" height="30" as="geometry" />
        </mxCell>
        <mxCell id="-HdvGqZTLZDaeZgYWsxk-12" value="" style="ellipse;whiteSpace=wrap;html=1;aspect=fixed;fillColor=#f5f5f5;strokeColor=#666666;fontColor=#333333;" vertex="1" parent="1">
          <mxGeometry x="445" y="250" width="30" height="30" as="geometry" />
        </mxCell>
        <mxCell id="-HdvGqZTLZDaeZgYWsxk-13" value="Зелёный мигающий" style="rounded=1;whiteSpace=wrap;html=1;fillColor=#f5f5f5;fontColor=#333333;strokeColor=#666666;labelPosition=center;verticalLabelPosition=top;align=center;verticalAlign=bottom;" vertex="1" parent="1">
          <mxGeometry x="200" y="360" width="40" height="130" as="geometry" />
        </mxCell>
        <mxCell id="-HdvGqZTLZDaeZgYWsxk-14" value="" style="ellipse;whiteSpace=wrap;html=1;aspect=fixed;fillColor=#f5f5f5;strokeColor=#666666;fontColor=#333333;" vertex="1" parent="1">
          <mxGeometry x="205" y="370" width="30" height="30" as="geometry" />
        </mxCell>
        <mxCell id="-HdvGqZTLZDaeZgYWsxk-15" value="" style="ellipse;whiteSpace=wrap;html=1;aspect=fixed;fillColor=#f5f5f5;strokeColor=#666666;fontColor=#333333;" vertex="1" parent="1">
          <mxGeometry x="205" y="410" width="30" height="30" as="geometry" />
        </mxCell>
        <mxCell id="-HdvGqZTLZDaeZgYWsxk-16" value="" style="ellipse;whiteSpace=wrap;html=1;aspect=fixed;fillColor=#d5e8d4;strokeColor=#82b366;fillStyle=zigzag-line;" vertex="1" parent="1">
          <mxGeometry x="205" y="450" width="30" height="30" as="geometry" />
        </mxCell>
        <mxCell id="-HdvGqZTLZDaeZgYWsxk-17" value="Зелёный" style="rounded=1;whiteSpace=wrap;html=1;fillColor=#f5f5f5;fontColor=#333333;strokeColor=#666666;labelPosition=center;verticalLabelPosition=top;align=center;verticalAlign=bottom;" vertex="1" parent="1">
          <mxGeometry x="360" y="360" width="40" height="130" as="geometry" />
        </mxCell>
        <mxCell id="-HdvGqZTLZDaeZgYWsxk-18" value="" style="ellipse;whiteSpace=wrap;html=1;aspect=fixed;fillColor=#f5f5f5;strokeColor=#666666;fontColor=#333333;" vertex="1" parent="1">
          <mxGeometry x="365" y="370" width="30" height="30" as="geometry" />
        </mxCell>
        <mxCell id="-HdvGqZTLZDaeZgYWsxk-19" value="" style="ellipse;whiteSpace=wrap;html=1;aspect=fixed;fillColor=#f5f5f5;strokeColor=#666666;fontColor=#333333;" vertex="1" parent="1">
          <mxGeometry x="365" y="410" width="30" height="30" as="geometry" />
        </mxCell>
        <mxCell id="-HdvGqZTLZDaeZgYWsxk-20" value="" style="ellipse;whiteSpace=wrap;html=1;aspect=fixed;fillColor=#d5e8d4;strokeColor=#82b366;" vertex="1" parent="1">
          <mxGeometry x="365" y="450" width="30" height="30" as="geometry" />
        </mxCell>
        <mxCell id="-HdvGqZTLZDaeZgYWsxk-22" value="" style="endArrow=classic;html=1;rounded=0;" edge="1" parent="1">
          <mxGeometry width="50" height="50" relative="1" as="geometry">
            <mxPoint x="340" y="170" as="sourcePoint" />
            <mxPoint x="420" y="200" as="targetPoint" />
          </mxGeometry>
        </mxCell>
        <mxCell id="-HdvGqZTLZDaeZgYWsxk-23" value="" style="endArrow=classic;html=1;rounded=0;" edge="1" parent="1">
          <mxGeometry width="50" height="50" relative="1" as="geometry">
            <mxPoint x="180" y="200" as="sourcePoint" />
            <mxPoint x="260" y="170" as="targetPoint" />
          </mxGeometry>
        </mxCell>
        <mxCell id="-HdvGqZTLZDaeZgYWsxk-25" value="" style="endArrow=classic;html=1;rounded=0;" edge="1" parent="1">
          <mxGeometry width="50" height="50" relative="1" as="geometry">
            <mxPoint x="450" y="310" as="sourcePoint" />
            <mxPoint x="420" y="390" as="targetPoint" />
          </mxGeometry>
        </mxCell>
        <mxCell id="-HdvGqZTLZDaeZgYWsxk-26" value="" style="endArrow=classic;html=1;rounded=0;" edge="1" parent="1">
          <mxGeometry width="50" height="50" relative="1" as="geometry">
            <mxPoint x="341.5" y="424.66" as="sourcePoint" />
            <mxPoint x="258.5" y="424.66" as="targetPoint" />
          </mxGeometry>
        </mxCell>
        <mxCell id="-HdvGqZTLZDaeZgYWsxk-27" value="" style="endArrow=classic;html=1;rounded=0;" edge="1" parent="1">
          <mxGeometry width="50" height="50" relative="1" as="geometry">
            <mxPoint x="180" y="390" as="sourcePoint" />
            <mxPoint x="150" y="310" as="targetPoint" />
          </mxGeometry>
        </mxCell>
      </root>
    </mxGraphModel>
  </diagram>
</mxfile>
